<mxfile host="app.diagrams.net" modified="2023-03-17T15:42:42.436Z" agent="5.0 (X11)" etag="-A_jaC0V_37e1-RAMaQH" version="21.0.2" type="github">
  <diagram id="C5RBs43oDa-KdzZeNtuy" name="Page-1">
    <mxGraphModel dx="1434" dy="795" grid="1" gridSize="10" guides="1" tooltips="1" connect="1" arrows="1" fold="1" page="1" pageScale="1" pageWidth="827" pageHeight="1169" math="0" shadow="0">
      <root>
        <mxCell id="WIyWlLk6GJQsqaUBKTNV-0" />
        <mxCell id="WIyWlLk6GJQsqaUBKTNV-1" parent="WIyWlLk6GJQsqaUBKTNV-0" />
        <mxCell id="JRmY_iP4Rora6nTUR1a2-0" value="" style="edgeStyle=orthogonalEdgeStyle;rounded=0;orthogonalLoop=1;jettySize=auto;html=1;" edge="1" parent="WIyWlLk6GJQsqaUBKTNV-1" source="JRmY_iP4Rora6nTUR1a2-1" target="JRmY_iP4Rora6nTUR1a2-3">
          <mxGeometry relative="1" as="geometry" />
        </mxCell>
        <mxCell id="JRmY_iP4Rora6nTUR1a2-1" value="Начало" style="rounded=1;whiteSpace=wrap;html=1;fontSize=12;glass=0;strokeWidth=1;shadow=0;" vertex="1" parent="WIyWlLk6GJQsqaUBKTNV-1">
          <mxGeometry x="160" y="80" width="120" height="40" as="geometry" />
        </mxCell>
        <mxCell id="JRmY_iP4Rora6nTUR1a2-2" value="" style="edgeStyle=orthogonalEdgeStyle;rounded=0;orthogonalLoop=1;jettySize=auto;html=1;" edge="1" parent="WIyWlLk6GJQsqaUBKTNV-1" source="JRmY_iP4Rora6nTUR1a2-3" target="JRmY_iP4Rora6nTUR1a2-5">
          <mxGeometry relative="1" as="geometry" />
        </mxCell>
        <mxCell id="JRmY_iP4Rora6nTUR1a2-3" value="Генерируем&amp;nbsp; массив &lt;br&gt;случайных чисел" style="shape=parallelogram;perimeter=parallelogramPerimeter;whiteSpace=wrap;html=1;fixedSize=1;rounded=1;glass=0;strokeWidth=1;shadow=0;" vertex="1" parent="WIyWlLk6GJQsqaUBKTNV-1">
          <mxGeometry x="120" y="140" width="200" height="70" as="geometry" />
        </mxCell>
        <mxCell id="JRmY_iP4Rora6nTUR1a2-4" value="" style="edgeStyle=orthogonalEdgeStyle;rounded=0;orthogonalLoop=1;jettySize=auto;html=1;" edge="1" parent="WIyWlLk6GJQsqaUBKTNV-1" source="JRmY_iP4Rora6nTUR1a2-5" target="JRmY_iP4Rora6nTUR1a2-7">
          <mxGeometry relative="1" as="geometry" />
        </mxCell>
        <mxCell id="JRmY_iP4Rora6nTUR1a2-5" value="Выводим массив&amp;nbsp;" style="shape=parallelogram;perimeter=parallelogramPerimeter;whiteSpace=wrap;html=1;fixedSize=1;rounded=1;glass=0;strokeWidth=1;shadow=0;" vertex="1" parent="WIyWlLk6GJQsqaUBKTNV-1">
          <mxGeometry x="115" y="230" width="210" height="60" as="geometry" />
        </mxCell>
        <mxCell id="JRmY_iP4Rora6nTUR1a2-6" value="" style="edgeStyle=orthogonalEdgeStyle;rounded=0;orthogonalLoop=1;jettySize=auto;html=1;" edge="1" parent="WIyWlLk6GJQsqaUBKTNV-1" source="JRmY_iP4Rora6nTUR1a2-7" target="JRmY_iP4Rora6nTUR1a2-9">
          <mxGeometry relative="1" as="geometry" />
        </mxCell>
        <mxCell id="JRmY_iP4Rora6nTUR1a2-7" value="вызываем функцию quick_sort()" style="shape=parallelogram;perimeter=parallelogramPerimeter;whiteSpace=wrap;html=1;fixedSize=1;rounded=1;glass=0;strokeWidth=1;shadow=0;" vertex="1" parent="WIyWlLk6GJQsqaUBKTNV-1">
          <mxGeometry x="135" y="310" width="170" height="60" as="geometry" />
        </mxCell>
        <mxCell id="JRmY_iP4Rora6nTUR1a2-8" value="" style="edgeStyle=orthogonalEdgeStyle;rounded=0;orthogonalLoop=1;jettySize=auto;html=1;" edge="1" parent="WIyWlLk6GJQsqaUBKTNV-1" source="JRmY_iP4Rora6nTUR1a2-9" target="JRmY_iP4Rora6nTUR1a2-10">
          <mxGeometry relative="1" as="geometry" />
        </mxCell>
        <mxCell id="JRmY_iP4Rora6nTUR1a2-9" value="Выводим отсортированный массив&amp;nbsp;" style="shape=parallelogram;perimeter=parallelogramPerimeter;whiteSpace=wrap;html=1;fixedSize=1;rounded=1;glass=0;strokeWidth=1;shadow=0;" vertex="1" parent="WIyWlLk6GJQsqaUBKTNV-1">
          <mxGeometry x="102.5" y="390" width="235" height="60" as="geometry" />
        </mxCell>
        <mxCell id="JRmY_iP4Rora6nTUR1a2-10" value="Конец&lt;br&gt;" style="rounded=1;whiteSpace=wrap;html=1;glass=0;strokeWidth=1;shadow=0;" vertex="1" parent="WIyWlLk6GJQsqaUBKTNV-1">
          <mxGeometry x="160" y="470" width="120" height="60" as="geometry" />
        </mxCell>
        <mxCell id="JRmY_iP4Rora6nTUR1a2-11" value="Функция quick_sort&lt;span style=&quot;font-family: ui-monospace, SFMono-Regular, &amp;quot;SF Mono&amp;quot;, Menlo, Consolas, &amp;quot;Liberation Mono&amp;quot;, monospace; font-size: 12px; font-style: normal; font-variant-ligatures: normal; font-variant-caps: normal; font-weight: 400; letter-spacing: normal; orphans: 2; text-align: start; text-indent: 0px; text-transform: none; widows: 2; word-spacing: 0px; -webkit-text-stroke-width: 0px; background-color: rgb(255, 255, 255); text-decoration-thickness: initial; text-decoration-style: initial; text-decoration-color: initial; float: none; display: inline !important;&quot;&gt;&lt;/span&gt;" style="text;whiteSpace=wrap;html=1;" vertex="1" parent="WIyWlLk6GJQsqaUBKTNV-1">
          <mxGeometry x="513.77" y="40" width="117.49" height="40" as="geometry" />
        </mxCell>
        <mxCell id="JRmY_iP4Rora6nTUR1a2-12" value="" style="edgeStyle=orthogonalEdgeStyle;rounded=0;orthogonalLoop=1;jettySize=auto;html=1;" edge="1" parent="WIyWlLk6GJQsqaUBKTNV-1" source="JRmY_iP4Rora6nTUR1a2-13" target="JRmY_iP4Rora6nTUR1a2-14">
          <mxGeometry relative="1" as="geometry" />
        </mxCell>
        <mxCell id="JRmY_iP4Rora6nTUR1a2-13" value="Начало" style="rounded=1;whiteSpace=wrap;html=1;fontSize=12;glass=0;strokeWidth=1;shadow=0;" vertex="1" parent="WIyWlLk6GJQsqaUBKTNV-1">
          <mxGeometry x="512.51" y="80" width="120" height="40" as="geometry" />
        </mxCell>
        <mxCell id="JRmY_iP4Rora6nTUR1a2-14" value="&lt;div style=&quot;text-align: start;&quot;&gt;&lt;font face=&quot;ui-monospace, SFMono-Regular, SF Mono, Menlo, Consolas, Liberation Mono, monospace&quot; color=&quot;#24292f&quot;&gt;Получаем массив arr,low (номер первого) и high (последнего его элемента&lt;/font&gt;&lt;/div&gt;" style="shape=parallelogram;perimeter=parallelogramPerimeter;whiteSpace=wrap;html=1;fixedSize=1;rounded=1;" vertex="1" parent="WIyWlLk6GJQsqaUBKTNV-1">
          <mxGeometry x="467.51" y="140" width="210" height="70" as="geometry" />
        </mxCell>
      </root>
    </mxGraphModel>
  </diagram>
</mxfile>
